<?xml version="1.0" standalone="no"?><!DOCTYPE svg PUBLIC "-//W3C//DTD SVG 1.1//EN" "http://www.w3.org/Graphics/SVG/1.1/DTD/svg11.dtd"><svg height="365" node-id="1" sillyvg="true" template-height="365" template-width="435" version="1.1" viewBox="0 0 435 365" width="435" xmlns="http://www.w3.org/2000/svg" xmlns:xlink="http://www.w3.org/1999/xlink"><defs node-id="87"></defs><g node-id="245"><path d="M 109.47 264.28 L 109.99 245.46 L 112.68 240.96 L 115.32 230.87 C 121.97 222.06 130.34 214.70 139.93 209.23 C 155.61 200.42 198.32 180.15 198.32 180.15 L 224.55 169.15 C 231.36 168.46 238.15 170.64 243.29 175.15 C 252.00 182.73 281.80 224.00 281.80 224.00 L 302.80 254.23 C 302.80 254.23 311.80 265.67 312.66 278.57 C 313.52 291.47 311.00 297.00 311.00 297.00 L 299.73 308.31 L 271.51 327.86 L 240.70 344.33 L 208.62 358.54 C 208.62 358.54 194.55 372.86 171.49 353.75 C 157.67 336.94 144.02 319.87 144.02 319.87 L 122.20 286.74 Z" fill="#ffffff" fill-rule="nonzero" group-id="1" node-id="91" stroke="none" target-height="204.39557" target-width="204.04999" target-x="109.47" target-y="168.46442"></path><path d="M 236.07 219.58 L 236.97 220.90 L 242.74 216.98 L 242.05 215.98 L 243.54 214.98 L 244.59 216.52 C 244.83 216.86 244.89 217.29 244.77 217.68 C 244.65 218.09 244.39 218.45 244.03 218.68 L 238.16 222.68 L 238.96 223.85 L 237.47 224.85 L 234.58 220.59 Z" fill="#282828" fill-rule="nonzero" group-id="1" node-id="93" stroke="none" target-height="9.87001" target-width="10.314697" target-x="234.58" target-y="214.98"></path><path d="M 245.41 220.77 C 245.77 220.50 246.22 220.38 246.66 220.44 C 247.07 220.48 247.43 220.70 247.66 221.04 L 250.66 225.51 C 250.89 225.85 250.96 226.28 250.84 226.67 C 250.73 227.10 250.46 227.48 250.08 227.72 L 244.17 231.72 C 243.81 231.99 243.36 232.11 242.92 232.04 C 242.52 232.00 242.15 231.78 241.92 231.45 L 238.92 226.98 C 238.69 226.64 238.62 226.21 238.74 225.82 C 238.85 225.39 239.12 225.01 239.50 224.77 L 239.50 224.77 Z M 243.09 229.92 L 248.87 226.00 L 246.54 222.58 L 240.77 226.50 Z" fill="#282828" fill-rule="nonzero" group-id="1" node-id="95" stroke="none" target-height="11.721939" target-width="12.332733" target-x="238.62436" target-y="220.38432"></path><path d="M 250.88 228.81 C 251.24 228.54 251.69 228.43 252.13 228.49 C 252.54 228.53 252.90 228.75 253.13 229.09 L 256.13 233.55 C 256.36 233.89 256.43 234.32 256.31 234.72 C 256.19 235.14 255.92 235.49 255.55 235.72 L 249.64 239.72 C 249.28 239.98 248.83 240.09 248.39 240.04 C 247.98 240.00 247.62 239.78 247.39 239.44 L 244.39 234.98 C 244.16 234.64 244.09 234.21 244.21 233.81 C 244.33 233.39 244.60 233.03 244.97 232.81 L 244.97 232.81 Z M 248.56 238.00 L 254.33 234.07 L 252.00 230.62 L 246.22 234.54 Z" fill="#282828" fill-rule="nonzero" group-id="1" node-id="97" stroke="none" target-height="11.665085" target-width="12.334732" target-x="244.09264" target-y="228.42934"></path><path d="M 254.16 246.50 L 254.73 247.34 L 253.37 248.26 L 252.50 247.00 C 252.32 246.73 252.21 246.41 252.17 246.09 C 252.15 245.96 252.15 245.83 252.17 245.70 C 252.19 245.54 252.23 245.37 252.27 245.21 L 253.00 242.00 L 250.34 243.81 L 249.16 242.07 L 257.92 236.07 L 259.10 237.81 L 254.34 241.04 L 258.34 241.67 L 259.79 243.80 L 254.87 243.09 Z" fill="#282828" fill-rule="nonzero" group-id="1" node-id="99" stroke="none" target-height="12.189987" target-width="10.630005" target-x="249.16" target-y="236.07"></path><path d="M 256.07 254.22 L 258.07 252.88 L 255.85 249.62 C 255.61 249.29 255.54 248.87 255.64 248.48 C 255.73 248.07 255.98 247.71 256.33 247.48 L 259.09 245.61 C 259.43 245.37 259.86 245.27 260.27 245.33 C 260.68 245.39 261.04 245.61 261.27 245.95 L 263.82 249.72 C 264.05 250.05 264.13 250.47 264.04 250.86 C 263.95 251.27 263.70 251.63 263.35 251.86 L 257.21 256.00 C 256.87 256.25 256.45 256.35 256.03 256.28 C 255.62 256.23 255.26 256.00 255.03 255.66 L 251.77 250.87 L 253.14 249.94 Z M 259.40 252.00 L 262.09 250.17 L 260.21 247.40 L 257.52 249.23 Z" fill="#282828" fill-rule="nonzero" group-id="1" node-id="101" stroke="none" target-height="11.083771" target-width="12.362473" target-x="251.77" target-y="245.26703"></path><path d="M 173.07 308.26 L 172.29 305.74 L 174.96 299.32 L 180.53 295.73 L 191.72 291.46 L 198.95 287.11 L 205.66 277.41 L 210.12 268.26 L 219.30 263.53 L 231.11 261.77 L 234.04 263.29 L 235.91 269.69 L 235.22 277.49 L 235.75 285.13 L 233.91 289.94 L 226.22 294.22 L 216.33 297.14 L 208.17 302.67 L 200.64 309.48 L 191.85 313.08 L 181.28 313.73 L 175.31 311.04 L 173.07 308.26 Z" fill="#c9c9c9" fill-rule="nonzero" group-id="1" node-id="103" stroke="none" target-height="51.960022" target-width="63.62001" target-x="172.29" target-y="261.77"></path><path d="M 152.33 277.76 C 152.33 277.76 147.08 277.29 148.64 268.09 C 150.20 258.89 156.16 250.94 156.16 250.94 L 167.89 243.80 L 177.12 235.27 L 186.00 224.08 L 193.00 223.51 L 204.16 227.14 L 212.82 231.82 L 212.32 237.50 L 207.42 246.41 L 200.95 252.56 L 194.00 255.74 L 185.91 256.24 L 177.42 259.06 L 172.42 264.06 L 168.42 270.28 L 163.20 276.37 L 157.78 278.22 Z" fill="#c9c9c9" fill-rule="nonzero" group-id="1" node-id="105" stroke="none" target-height="54.710007" target-width="65.740005" target-x="147.08" target-y="223.51"></path><path d="M 307.76 261.32 L 263.89 198.20 C 258.84 190.93 253.71 183.57 246.89 177.94 C 240.07 172.31 231.15 166.23 223.00 169.66 C 193.13 182.22 163.13 194.86 135.56 211.88 C 129.01 215.93 122.46 220.35 117.92 226.57 C 113.38 232.79 111.13 241.20 114.00 248.35 C 128.00 283.23 156.00 311.35 179.38 340.84 C 185.10 348.05 195.18 351.91 203.73 348.53 C 238.92 334.64 272.10 313.38 303.07 291.66 C 307.80 288.35 309.98 281.37 311.00 275.66 C 312.02 269.95 311.06 266.06 307.76 261.32 Z" fill="none" group-id="1" node-id="107" stroke="#282828" stroke-linecap="round" stroke-width="4" target-height="185.68001" target-width="200.88998" target-x="111.13" target-y="166.23"></path><path d="M 110.24 244.54 C 109.92 249.54 108.24 259.54 109.47 264.28 C 110.70 269.02 114.47 273.85 117.00 278.10 C 122.68 287.72 128.68 297.14 135.00 306.36 C 142.18 316.84 149.75 327.04 157.71 336.96 C 164.53 345.46 172.29 355.48 182.25 360.48 C 187.88 363.31 194.69 364.27 200.52 361.90 C 234.52 348.10 268.42 332.80 297.35 310.27 C 301.80 306.99 305.71 303.05 308.94 298.57 C 312.11 294.34 313.22 282.88 312.52 276.46" fill="none" group-id="1" node-id="109" stroke="#282828" stroke-linecap="round" stroke-width="4" target-height="119.729996" target-width="204.98001" target-x="108.24" target-y="244.54"></path><path d="M 240.91 198.47 C 257.11 215.90 270.80 237.20 282.33 258.01 C 276.70 264.82 268.11 269.39 259.61 271.79 C 244.34 252.73 230.67 230.74 218.71 209.45 C 224.37 205.18 232.50 200.45 239.26 198.33" fill="none" group-id="1" node-id="111" stroke="#282828" stroke-linecap="round" stroke-width="4" target-height="73.46001" target-width="63.61998" target-x="218.71" target-y="198.33"></path><path d="M 149.32 264.22 C 147.93 269.07 148.32 275.29 152.70 277.83 C 155.94 279.72 160.23 278.72 163.21 276.45 C 166.19 274.18 168.16 270.87 170.12 267.67 C 172.08 264.47 174.12 261.21 177.29 259.14 C 183.84 254.80 192.94 256.83 199.87 253.14 C 205.95 249.92 209.04 243.14 211.72 236.78 C 212.29 235.41 212.88 233.91 212.49 232.48 C 211.36 228.41 205.09 227.23 201.68 226.23 C 196.99 224.87 191.34 221.98 186.48 223.96 C 184.76 224.85 183.30 226.16 182.23 227.77 C 177.00 234.38 172.56 242.13 164.88 245.94 C 157.38 249.60 151.74 256.23 149.32 264.22 Z" fill="none" group-id="1" node-id="113" stroke="#282828" stroke-linecap="round" stroke-width="4" target-height="57.740005" target-width="64.95001" target-x="147.93" target-y="221.98"></path><path d="M 184.67 314.00 C 179.67 314.00 173.77 311.81 172.57 306.92 C 171.68 303.28 173.85 299.45 176.87 297.23 C 179.89 295.01 183.62 294.05 187.24 293.08 C 190.86 292.11 194.58 291.02 197.45 288.61 C 203.45 283.56 204.09 274.26 209.57 268.61 C 214.37 263.69 221.78 262.61 228.57 261.88 C 230.04 261.71 231.65 261.57 232.91 262.35 C 236.49 264.58 235.91 270.93 235.85 274.49 C 235.85 279.37 237.01 285.60 233.73 289.71 C 232.40 291.11 230.73 292.15 228.88 292.71 C 221.06 295.86 212.37 297.94 206.55 304.22 C 200.94 310.39 193.01 313.93 184.67 314.00 Z" fill="none" group-id="1" node-id="115" stroke="#282828" stroke-linecap="round" stroke-width="4" target-height="52.429993" target-width="65.33" target-x="171.68" target-y="261.57"></path><path d="M 64.08 89.30 L 77.13 92.69 L 82.03 66.92 L 66.77 65.54 L 61.00 71.47 L 59.70 79.90 L 64.08 89.30 Z" fill="#c9c9c9" fill-rule="nonzero" group-id="1" node-id="117" stroke="none" target-height="27.150002" target-width="22.329998" target-x="59.7" target-y="65.54"></path><path d="M 100.33 156.34 L 92.98 151.18 L 86.00 142.40 L 80.79 130.02 L 77.78 112.17 L 78.96 87.23 L 84.56 63.28 L 93.09 42.49 L 102.96 24.77 L 113.44 14.21 L 127.85 7.20 L 137.45 7.49 L 134.08 12.38 L 127.27 19.73 L 121.16 27.96 L 114.33 39.88 L 107.46 55.28 L 102.90 69.07 L 99.67 81.61 L 97.12 92.21 L 95.67 104.22 L 94.51 116.69 L 96.04 128.58 L 98.12 141.21 L 100.30 150.43 L 103.40 157.74 L 100.33 156.34 Z" fill="#ffd15f" fill-rule="nonzero" group-id="1" node-id="119" stroke="none" target-height="150.54001" target-width="59.67" target-x="77.78" target-y="7.2"></path><path d="M 423.78 171.40 C 424.14 171.40 429.70 166.40 429.70 166.40 L 432.34 158.56 L 432.62 150.50 L 429.00 145.00 L 422.81 143.46 L 387.77 137.00 L 383.21 140.82 L 380.85 145.74 L 380.40 151.83 L 381.77 157.20 L 383.53 160.70 Z" fill="#c9c9c9" fill-rule="nonzero" group-id="1" node-id="121" stroke="none" target-height="34.399994" target-width="52.22" target-x="380.4" target-y="137"></path><path d="M 374.81 218.06 L 366.83 218.09 L 354.55 215.73 L 343.52 206.36 L 337.69 195.43 L 334.92 176.61 L 334.55 150.76 L 336.54 134.44 L 343.36 110.46 L 349.82 94.62 L 359.29 78.20 L 371.22 64.22 L 378.42 60.17 L 388.72 61.40 L 393.39 64.43 L 401.10 66.07 L 409.88 75.81 L 414.19 89.84 L 414.71 104.80 L 413.92 122.36 L 411.50 136.75 L 409.29 141.64 L 387.44 136.45 L 382.20 141.62 L 380.53 146.68 L 381.11 153.13 L 382.24 158.19 L 384.00 161.60 L 406.21 167.01 L 404.07 175.97 L 400.71 187.05 L 397.19 195.78 L 392.37 204.65 L 386.86 212.04 L 381.21 216.00 L 374.81 218.06 Z" fill="#ffd15f" fill-rule="nonzero" group-id="1" node-id="123" stroke="none" target-height="157.92" target-width="80.16" target-x="334.55" target-y="60.17"></path><path d="M 365.11 219.23 C 365.11 219.23 349.63 217.23 344.39 208.07 C 339.15 198.91 334.19 170.37 334.22 170.85 C 334.25 171.33 336.58 135.57 336.58 135.57 L 344.10 108.17 L 353.30 88.00 L 363.40 72.00 L 374.53 62.61 L 388.72 61.32 L 383.57 52.42 L 373.00 45.38 L 358.95 42.38 L 342.11 43.90 L 313.79 57.69 L 301.00 72.00 L 292.22 87.00 L 285.17 104.53 L 280.00 123.39 L 276.20 149.74 L 276.80 166.94 L 280.48 186.31 L 287.32 200.31 L 297.25 211.61 L 312.25 221.09 L 324.91 225.69 L 336.79 230.08 L 353.00 227.08 Z" fill="#75aed1" fill-rule="nonzero" group-id="1" node-id="125" stroke="none" target-height="187.7" target-width="112.51999" target-x="276.2" target-y="42.38"></path><path d="M 97.00 135.68 L 95.00 109.97 L 98.00 87.18 L 104.29 63.40 L 114.29 37.92 L 127.29 19.73 L 139.38 8.43 L 153.83 2.19 L 170.83 3.07 L 190.25 7.81 L 199.25 10.13 L 209.74 18.54 L 216.18 29.10 L 220.18 40.56 L 222.48 52.56 L 223.43 63.91 L 224.00 79.38 L 221.79 90.84 C 221.79 90.84 221.10 97.84 221.27 97.90 L 204.84 93.90 L 176.89 87.54 L 169.25 92.27 L 165.70 100.20 C 165.70 100.20 167.40 105.29 167.70 105.85 C 168.00 106.41 181.00 110.13 181.00 110.13 L 216.18 118.71 L 210.18 135.31 L 202.26 148.31 L 194.83 161.31 L 185.66 172.63 L 173.38 181.34 L 159.84 186.11 L 145.44 184.38 L 133.25 177.60 L 114.60 167.69 L 103.38 157.69 L 98.47 142.69 Z" fill="#75aed1" fill-rule="nonzero" group-id="1" node-id="127" stroke="none" target-height="183.92" target-width="129" target-x="95" target-y="2.19"></path><path d="M 277.71 135.49 L 282.17 112.66 L 262.00 106.51 L 231.93 100.93 L 202.85 94.13 L 176.54 86.52 L 167.75 92.72 L 165.27 99.26 L 167.88 108.09 L 199.78 115.91 L 234.70 123.39 C 234.70 123.39 264.58 132.79 264.83 133.02 C 265.08 133.25 277.71 135.49 277.71 135.49 Z" fill="#c9c9c9" fill-rule="nonzero" group-id="1" node-id="129" stroke="none" target-height="48.97001" target-width="116.90001" target-x="165.27" target-y="86.52"></path><path d="M 220.93 95.84 C 228.73 52.28 217.99 14.49 194.82 8.54 C 169.43 2.00 138.73 36.20 126.24 84.87 C 113.75 133.54 124.24 178.27 149.60 184.79 C 172.86 190.79 200.60 162.56 214.67 120.36" fill="none" group-id="1" node-id="131" stroke="#282828" stroke-linecap="round" stroke-width="4" target-height="188.79" target-width="114.979996" target-x="113.75" target-y="2"></path><path d="M 140.32 180.39 C 123.14 173.89 105.40 166.02 99.89 147.89 C 88.32 109.76 99.82 61.34 121.14 28.10 C 126.31 20.10 132.83 12.68 140.87 7.40 C 150.31 1.20 161.03 1.13 171.87 3.26 C 177.10 4.29 182.23 5.80 187.18 7.79" fill="none" group-id="1" node-id="133" stroke="#282828" stroke-linecap="round" stroke-width="4" target-height="179.26" target-width="98.85999" target-x="88.32" target-y="1.13"></path><path d="M 103.40 157.74 C 84.40 150.22 78.50 128.69 77.74 110.12 C 76.79 86.89 82.88 62.60 93.39 41.89 C 101.39 26.22 117.76 3.06 138.10 7.62" fill="none" group-id="1" node-id="135" stroke="#282828" stroke-linecap="round" stroke-width="4" target-height="154.68001" target-width="61.310005" target-x="76.79" target-y="3.06"></path><path d="M 365.11 219.23 C 353.25 229.23 336.99 235.56 324.56 222.56 C 318.62 216.35 315.63 207.90 313.61 199.56 C 306.04 168.27 308.84 132.02 319.92 101.85 C 327.33 81.67 350.07 38.46 377.80 49.24 C 383.56 51.48 388.26 56.84 388.80 63.00" fill="none" group-id="1" node-id="137" stroke="#282828" stroke-linecap="round" stroke-width="4" target-height="197.1" target-width="82.75998" target-x="306.04" target-y="38.46"></path><path d="M 326.32 226.05 C 311.07 222.00 297.32 214.66 288.09 201.45 C 269.49 174.76 275.57 134.76 284.78 105.69 C 291.20 85.41 302.93 63.51 321.52 52.00 C 329.69 47.00 338.87 43.90 348.39 42.91 C 358.56 41.79 368.84 43.62 378.00 48.19" fill="none" group-id="1" node-id="139" stroke="#282828" stroke-linecap="round" stroke-width="4" target-height="184.26134" target-width="108.51001" target-x="269.49" target-y="41.788666"></path><path d="M 375.46 218.00 C 369.76 218.25 363.98 218.27 358.46 216.95 C 343.18 213.29 337.46 198.36 335.46 184.25 C 330.44 146.51 339.26 108.23 360.28 76.49 C 364.36 70.38 369.01 64.28 376.17 61.60 C 380.17 60.09 391.17 60.98 393.06 65.11 C 393.06 65.11 380.55 79.61 379.54 81.11 C 374.74 88.08 370.60 95.49 367.16 103.22 C 355.47 129.49 351.10 160.97 359.16 188.89 C 361.42 196.69 364.16 206.29 369.85 212.36 C 372.53 215.19 376.52 217.11 380.33 216.28 C 383.33 215.62 385.79 213.39 387.76 211.01 C 397.64 199.06 402.48 183.54 405.88 168.36" fill="none" group-id="1" node-id="141" stroke="#282828" stroke-linecap="round" stroke-width="4" target-height="158.18001" target-width="75.44101" target-x="330.439" target-y="60.09"></path><path d="M 410.93 141.05 C 413.49 123.80 413.97 106.30 412.34 88.93 C 411.34 79.07 408.34 67.32 397.05 65.17" fill="none" group-id="1" node-id="143" stroke="#282828" stroke-linecap="round" stroke-width="4" target-height="75.880005" target-width="16.91745" target-x="397.05" target-y="65.17"></path><path d="M 276.20 135.00 C 240.73 125.05 204.48 115.06 168.47 107.31 C 166.08 103.62 165.68 98.98 167.42 94.93 C 169.16 90.89 172.80 87.99 177.13 87.19 L 283.42 113.00" fill="none" group-id="1" node-id="145" stroke="#282828" stroke-linecap="round" stroke-width="4" target-height="47.809998" target-width="117.73825" target-x="165.68176" target-y="87.19"></path><path d="M 79.18 92.83 C 74.00 92.77 69.00 90.21 63.80 90.39 L 61.00 83.27 C 58.55 76.77 61.18 69.45 67.20 66.00 L 81.74 68.50" fill="none" group-id="1" node-id="147" stroke="#282828" stroke-linecap="round" stroke-width="4" target-height="26.830002" target-width="23.191723" target-x="58.548275" target-y="66"></path><path d="M 422.78 171.28 L 385.00 161.55 C 384.71 161.55 383.73 161.55 383.45 161.63 C 380.77 157.43 379.71 152.40 380.45 147.48 C 381.19 142.61 383.94 139.60 387.72 136.48 L 426.00 145.19 C 422.00 150.84 420.81 157.25 420.00 164.13 C 419.77 165.51 419.82 166.93 420.14 168.29 C 420.48 169.68 421.49 170.81 422.83 171.29 C 425.11 171.95 427.29 170.02 428.67 168.10 C 431.90 163.62 432.51 159.80 432.79 154.29 C 433.05 151.98 432.60 149.65 431.50 147.60 C 430.29 145.60 427.80 144.32 425.62 145.07" fill="none" group-id="1" node-id="149" stroke="#282828" stroke-linecap="round" stroke-width="4" target-height="35.47" target-width="53.339844" target-x="379.70767" target-y="136.48"></path><path d="M 58.30 214.33 L 58.66 214.48 L 42.66 228.55 L 39.17 224.16 L 21.52 221.52 L 7.21 235.65 L 2.00 249.14 L 14.23 264.48 L 38.94 270.13 L 52.37 257.57 L 55.37 242.45 L 51.65 237.00 L 71.08 217.80 C 67.71 215.17 62.90 214.29 58.30 214.33 Z" fill="#75aed1" fill-rule="nonzero" group-id="1" node-id="151" stroke="none" target-height="55.84001" target-width="69.08" target-x="2" target-y="214.29"></path><path d="M 112.00 202.22 C 110.34 202.63 108.59 202.33 107.17 201.39 C 102.24 204.96 97.77 207.19 92.84 210.75 C 84.24 209.92 76.02 206.07 68.52 201.64 L 68.79 202.07 L 54.00 197.63 L 55.39 192.63 L 47.26 178.46 L 27.26 171.97 L 11.26 184.52 L 6.26 204.09 L 12.26 215.90 L 34.42 223.10 L 45.25 218.46 L 48.08 210.20 L 58.28 214.36 C 62.88 214.36 67.69 215.20 71.06 217.81 L 71.06 217.81 L 87.39 223.00 L 85.18 227.50 L 88.55 244.50 L 110.18 250.41 L 125.75 241.76 L 133.00 227.34 L 127.75 207.22 Z" fill="#ffd15f" fill-rule="nonzero" group-id="1" node-id="153" stroke="none" target-height="78.44" target-width="126.74" target-x="6.26" target-y="171.97"></path><path d="M 92.80 210.75 C 97.73 207.19 102.20 204.96 107.13 201.39 C 108.55 202.33 110.30 202.63 111.96 202.22 L 111.90 202.22 L 112.74 193.48 L 102.17 172.30 L 82.17 169.30 L 67.79 183.57 L 64.12 194.69 L 68.48 201.64 C 76.00 206.07 84.20 209.92 92.80 210.75 Z" fill="#75aed1" fill-rule="nonzero" group-id="1" node-id="155" stroke="none" target-height="41.449997" target-width="48.619995" target-x="64.12" target-y="169.3"></path><path d="M 32.09 222.89 C 26.97 220.89 17.59 218.28 12.48 216.27 C 10.70 212.50 8.48 208.61 6.73 204.83 C 8.04 198.17 9.16 190.93 11.30 184.49 C 16.65 180.14 21.95 176.29 27.30 171.94 C 33.65 174.34 40.16 176.30 46.78 177.82 C 41.92 182.07 36.46 187.27 31.60 191.52 C 30.90 197.86 28.99 204.28 27.31 210.43 C 29.43 214.32 31.31 219.34 33.39 223.24 L 32.39 222.53" fill="none" group-id="1" node-id="157" stroke="#282828" stroke-linecap="round" stroke-width="4" target-height="51.300003" target-width="40.05" target-x="6.73" target-y="171.94"></path><path d="M 7.87 205.28 L 26.45 210.78" fill="none" group-id="1" node-id="159" stroke="#282828" stroke-linecap="round" stroke-width="4" target-height="5.5" target-width="18.580002" target-x="7.87" target-y="205.28"></path><path d="M 12.41 184.89 L 30.85 190.81" fill="none" group-id="1" node-id="161" stroke="#282828" stroke-linecap="round" stroke-width="4" target-height="5.919998" target-width="18.44" target-x="12.41" target-y="184.89"></path><path d="M 34.12 223.62 C 37.12 222.01 41.71 220.30 44.72 218.69 C 45.54 216.58 47.28 212.28 48.10 210.17" fill="none" group-id="1" node-id="163" stroke="#282828" stroke-linecap="round" stroke-width="4" target-height="13.449997" target-width="13.98" target-x="34.12" target-y="210.17"></path><path d="M 47.29 178.43 L 55.42 192.60 C 54.93 194.34 54.42 196.36 53.90 198.10" fill="none" group-id="1" node-id="165" stroke="#282828" stroke-linecap="round" stroke-width="4" target-height="19.670013" target-width="8.129997" target-x="47.29" target-y="178.43"></path><path d="M 92.59 210.70 L 49.06 196.47 C 45.06 195.70 42.06 196.76 40.53 200.97 C 39.73 203.26 39.96 205.79 41.15 207.90 L 85.61 222.57" fill="none" group-id="1" node-id="167" stroke="#282828" stroke-linecap="round" stroke-width="4" target-height="26.87001" target-width="52.858063" target-x="39.731934" target-y="195.7"></path><path d="M 88.49 244.12 C 87.34 238.56 86.00 232.51 84.83 227.00 L 93.10 209.68 L 104.92 201.32" fill="none" group-id="1" node-id="169" stroke="#282828" stroke-linecap="round" stroke-width="4" target-height="42.799988" target-width="20.089996" target-x="84.83" target-y="201.32"></path><path d="M 88.82 244.75 L 109.29 250.86 L 108.14 250.64" fill="none" group-id="1" node-id="171" stroke="#282828" stroke-linecap="round" stroke-width="4" target-height="6.1100006" target-width="20.470001" target-x="88.82" target-y="244.75"></path><path d="M 85.08 226.73 L 105.48 232.27" fill="none" group-id="1" node-id="173" stroke="#282828" stroke-linecap="round" stroke-width="4" target-height="5.5400085" target-width="20.400002" target-x="85.08" target-y="226.73"></path><path d="M 93.51 209.69 C 100.11 212.19 106.91 214.11 113.84 215.43" fill="none" group-id="1" node-id="175" stroke="#282828" stroke-linecap="round" stroke-width="4" target-height="5.73999" target-width="20.329994" target-x="93.51" target-y="209.69"></path><path d="M 105.66 201.00 L 125.74 206.00" fill="none" group-id="1" node-id="177" stroke="#282828" stroke-linecap="round" stroke-width="4" target-height="5" target-width="20.079994" target-x="105.66" target-y="201"></path><path d="M 109.38 250.16 C 108.20 244.48 107.17 238.16 105.98 232.43 L 114.67 216.12 L 127.67 207.22" fill="none" group-id="1" node-id="179" stroke="#282828" stroke-linecap="round" stroke-width="4" target-height="42.940002" target-width="21.689995" target-x="105.98" target-y="207.22"></path><path d="M 110.44 251.00 C 110.74 250.81 111.03 250.60 111.34 250.41 L 125.75 241.82 L 133.00 227.34 L 128.23 207.46" fill="none" group-id="1" node-id="181" stroke="#282828" stroke-linecap="round" stroke-width="4" target-height="43.539993" target-width="22.559998" target-x="110.44" target-y="207.46"></path><path d="M 43.41 227.43 L 57.83 214.27" fill="none" group-id="1" node-id="183" stroke="#282828" stroke-linecap="round" stroke-width="4" target-height="13.159988" target-width="14.420002" target-x="43.41" target-y="214.27"></path><path d="M 51.91 237.49 L 52.29 237.30 L 70.59 218.87" fill="none" group-id="1" node-id="185" stroke="#282828" stroke-linecap="round" stroke-width="4" target-height="18.62001" target-width="18.679996" target-x="51.91" target-y="218.87"></path><path d="M 68.75 202.07 L 74.22 196.49" fill="none" group-id="1" node-id="187" stroke="#282828" stroke-linecap="round" stroke-width="4" target-height="5.580002" target-width="5.470001" target-x="68.75" target-y="196.49"></path><path d="M 81.26 206.80 L 87.24 201.29" fill="none" group-id="1" node-id="189" stroke="#282828" stroke-linecap="round" stroke-width="4" target-height="5.51001" target-width="5.9799957" target-x="81.26" target-y="201.29"></path><path d="M 87.12 200.33 C 87.02 197.63 85.35 195.24 82.86 194.21 C 80.36 193.18 77.49 193.71 75.52 195.56" fill="none" group-id="1" node-id="191" stroke="#282828" stroke-linecap="round" stroke-width="4" target-height="7.145111" target-width="11.600006" target-x="75.52" target-y="193.18489"></path><path d="M 43.00 254.05 C 47.21 250.35 51.53 246.55 55.35 242.45 L 39.35 224.82 C 35.53 228.66 31.20 232.82 27.35 236.63" fill="none" group-id="1" node-id="193" stroke="#282828" stroke-linecap="round" stroke-width="4" target-height="29.229996" target-width="27.999998" target-x="27.35" target-y="224.82"></path><path d="M 8.53 236.00 C 14.60 237.06 20.73 237.80 26.88 238.24 C 32.21 243.47 37.26 248.95 42.01 254.68" fill="none" group-id="1" node-id="195" stroke="#282828" stroke-linecap="round" stroke-width="4" target-height="18.679993" target-width="33.48" target-x="8.53" target-y="236"></path><path d="M 7.21 235.65 L 21.13 221.48 C 26.80 222.03 32.44 222.92 38.00 224.16" fill="none" group-id="1" node-id="197" stroke="#282828" stroke-linecap="round" stroke-width="4" target-height="14.169998" target-width="30.79" target-x="7.21" target-y="221.48"></path><path d="M 6.67 236.51 L 2.00 249.14 L 14.23 264.48 L 38.05 270.57 L 41.70 255.58" fill="none" group-id="1" node-id="199" stroke="#282828" stroke-linecap="round" stroke-width="4" target-height="34.060013" target-width="39.7" target-x="2" target-y="236.51"></path><path d="M 55.71 242.90 L 52.37 257.57 L 39.07 270.38" fill="none" group-id="1" node-id="201" stroke="#282828" stroke-linecap="round" stroke-width="4" target-height="27.480011" target-width="16.64" target-x="39.07" target-y="242.9"></path><path d="M 99.25 203.09 L 89.69 186.42 L 80.44 185.28 C 76.76 184.83 72.70 183.79 68.98 183.86 C 66.98 183.86 66.63 186.72 66.08 188.29 C 65.34 190.40 64.67 192.54 64.08 194.69" fill="none" group-id="1" node-id="203" stroke="#282828" stroke-linecap="round" stroke-width="4" target-height="19.300003" target-width="35.17" target-x="64.08" target-y="183.79"></path><path d="M 67.83 183.00 L 68.54 182.17 L 81.27 169.50 L 102.17 172.28 L 89.05 186.10" fill="none" group-id="1" node-id="205" stroke="#282828" stroke-linecap="round" stroke-width="4" target-height="16.600006" target-width="34.339996" target-x="67.83" target-y="169.5"></path><path d="M 106.05 201.77 L 113.12 195.24 L 102.93 172.85" fill="none" group-id="1" node-id="207" stroke="#282828" stroke-linecap="round" stroke-width="4" target-height="28.919998" target-width="10.190002" target-x="102.93" target-y="172.85"></path><path d="M 112.09 201.67 L 113.28 194.55" fill="none" group-id="1" node-id="209" stroke="#282828" stroke-linecap="round" stroke-width="4" target-height="7.119995" target-width="1.1900024" target-x="112.09" target-y="194.55"></path><path d="M 64.08 196.00 C 65.55 198.14 66.89 200.37 68.08 202.68 L 67.66 201.83" fill="none" group-id="1" node-id="211" stroke="#282828" stroke-linecap="round" stroke-width="4" target-height="6.6799927" target-width="4" target-x="64.08" target-y="196"></path><path d="M 330.23 325.81 L 322.46 312.83 L 318.94 297.72 L 318.79 283.74 L 322.46 269.54 L 330.23 255.09 L 341.56 245.05 L 361.36 235.87 L 378.79 234.29 L 391.67 236.03 L 404.62 242.96 L 413.79 250.18 L 423.60 262.90 L 427.70 271.96 L 430.84 289.11 L 429.86 304.78 L 426.23 314.94 L 419.22 324.72 L 411.70 333.15 L 398.92 341.20 L 384.58 345.96 L 369.76 346.71 L 359.74 344.71 L 345.62 338.65 L 335.59 331.42 L 330.88 326.88 L 330.23 325.81 Z" fill="#ffffff" fill-rule="nonzero" group-id="1" node-id="213" stroke="none" target-height="112.42" target-width="112.04999" target-x="318.79" target-y="234.29"></path><path d="M 392.37 282.96 L 398.13 280.50 L 402.54 276.09 L 398.56 264.97 L 392.37 255.79 L 385.57 248.25 L 377.24 243.09 L 363.55 239.77 L 352.94 239.77 L 344.04 243.34 L 337.31 248.25 L 331.36 254.80 L 325.85 262.29 L 324.98 265.53 L 339.08 258.66 L 350.83 256.91 L 364.54 257.93 L 373.75 262.90 L 382.51 269.54 L 388.10 276.09 L 392.37 282.96 Z" fill="#ffd15f" fill-rule="nonzero" group-id="1" node-id="215" stroke="none" target-height="43.189987" target-width="77.56" target-x="324.98" target-y="239.77"></path><path d="M 371.74 306.46 L 371.74 311.01 L 373.04 317.95 L 374.10 323.27 L 375.22 325.13 L 391.67 326.68 L 404.77 322.99 L 414.09 318.47 L 422.96 309.16 L 430.75 293.91 L 430.75 280.50 L 426.09 265.25 L 423.60 262.90 L 424.06 271.70 L 422.27 279.08 L 416.77 289.67 L 411.70 297.61 L 403.51 303.09 L 396.58 306.90 L 387.69 308.33 L 379.64 307.88 L 371.74 306.46 Z" fill="#ffd15f" fill-rule="nonzero" group-id="1" node-id="217" stroke="none" target-height="63.78" target-width="59.01001" target-x="371.74" target-y="262.9"></path><path d="M 337.84 281.25 L 344.77 279.71 L 354.65 280.50 L 352.68 287.56 L 350.83 297.58 L 350.83 308.33 L 352.73 319.51 L 355.94 326.88 L 361.36 336.11 L 368.10 343.17 L 371.74 346.61 L 364.39 345.96 L 356.20 343.60 L 345.62 338.65 L 340.13 334.69 L 334.80 323.96 L 332.06 311.84 L 332.06 299.42 L 335.61 286.12 L 337.84 281.25 Z" fill="#ffd15f" fill-rule="nonzero" group-id="1" node-id="219" stroke="none" target-height="66.899994" target-width="39.679993" target-x="332.06" target-y="279.71"></path><path d="M 371.74 346.61 L 362.28 337.67 L 353.41 322.57 L 350.83 311.01 L 350.83 297.58 L 354.75 282.18 L 355.78 280.50 L 365.52 282.76 L 372.39 284.96 L 371.45 291.65 L 370.04 301.67 L 371.74 311.01 L 373.43 320.03 L 376.39 328.50 L 381.76 339.51 L 384.16 342.33 L 387.69 345.18 L 371.74 346.61 Z" fill="#75aed1" fill-rule="nonzero" group-id="1" node-id="221" stroke="none" target-height="66.109985" target-width="36.860016" target-x="350.83" target-y="280.5"></path><path d="M 374.10 286.12 L 385.57 285.16 L 394.79 282.18 L 401.23 277.49 L 406.18 272.17 L 408.72 266.52 L 410.56 258.66 L 411.70 251.98 L 411.70 248.25 L 418.44 256.20 L 424.06 263.91 L 422.96 272.03 L 420.44 283.74 L 414.51 295.15 L 404.63 303.79 L 391.67 308.33 L 380.63 308.33 L 370.32 305.77 L 370.96 295.15 L 372.23 286.12 L 374.10 286.12 Z" fill="#75aed1" fill-rule="nonzero" group-id="1" node-id="223" stroke="none" target-height="60.079987" target-width="53.73999" target-x="370.32" target-y="248.25"></path><path d="M 370.96 284.50 L 360.24 281.53 L 345.62 280.50 L 329.80 282.18 L 318.56 286.50 L 321.19 272.59 L 324.98 263.91 L 337.99 259.18 L 350.83 256.91 L 363.98 258.66 L 375.41 263.91 L 384.72 270.47 L 389.54 278.29 L 392.37 282.96 L 388.76 284.13 L 380.91 286.29 L 374.10 286.12 L 370.96 284.50 Z" fill="#75aed1" fill-rule="nonzero" group-id="1" node-id="225" stroke="none" target-height="29.589996" target-width="73.81" target-x="318.56" target-y="256.91"></path><path d="M 430.84 290.50 C 430.84 321.54 405.67 346.71 374.63 346.71 C 343.59 346.71 318.42 321.54 318.42 290.50 C 318.42 259.46 343.59 234.29 374.63 234.29 C 405.67 234.29 430.84 259.46 430.84 290.50 Z" fill="none" group-id="1" node-id="227" stroke="#282828" stroke-linecap="round" stroke-width="4" target-height="112.42" target-width="112.41998" target-x="318.42" target-y="234.29"></path><path d="M 319.14 286.40 C 335.90 277.96 355.57 277.48 372.72 285.10 C 368.45 301.92 370.37 319.71 378.13 335.23 C 380.13 339.23 383.20 343.50 387.69 343.96" fill="none" group-id="1" node-id="229" stroke="#282828" stroke-linecap="round" stroke-width="4" target-height="66.47925" target-width="68.54999" target-x="319.14" target-y="277.48074"></path><path d="M 373.00 286.08 C 383.38 287.81 393.97 284.52 401.54 277.21 C 409.12 269.90 412.79 259.44 411.43 249.00" fill="none" group-id="1" node-id="231" stroke="#282828" stroke-linecap="round" stroke-width="4" target-height="38.807312" target-width="39.785065" target-x="373" target-y="249"></path><path d="M 371.74 306.46 C 384.56 310.65 398.63 307.95 408.97 299.29 C 419.32 290.64 424.47 277.27 422.60 263.91" fill="none" group-id="1" node-id="233" stroke="#282828" stroke-linecap="round" stroke-width="4" target-height="46.74466" target-width="52.72638" target-x="371.74" target-y="263.91"></path><path d="M 374.10 324.79 C 385.42 328.44 397.74 327.35 408.25 321.76 C 418.75 316.18 426.55 306.58 429.86 295.15" fill="none" group-id="1" node-id="235" stroke="#282828" stroke-linecap="round" stroke-width="4" target-height="33.28943" target-width="55.75998" target-x="374.1" target-y="295.15"></path><path d="M 325.00 265.53 C 335.71 257.65 349.36 254.96 362.26 258.18 C 375.15 261.40 385.94 270.20 391.69 282.18" fill="none" group-id="1" node-id="237" stroke="#282828" stroke-linecap="round" stroke-width="4" target-height="27.22136" target-width="66.69" target-x="325" target-y="254.95863"></path><path d="M 345.62 242.53 C 357.47 237.88 370.81 239.01 381.70 245.59 C 392.60 252.17 399.82 263.44 401.23 276.09" fill="none" group-id="1" node-id="239" stroke="#282828" stroke-linecap="round" stroke-width="4" target-height="38.207825" target-width="55.610016" target-x="345.62" target-y="237.88217"></path><path d="M 337.84 281.25 C 328.64 298.70 330.56 321.42 342.57 337.07" fill="none" group-id="1" node-id="241" stroke="#282828" stroke-linecap="round" stroke-width="4" target-height="55.820007" target-width="13.929993" target-x="328.64" target-y="281.25"></path><path d="M 355.00 281.53 C 344.56 304.67 351.81 331.97 372.36 346.88" fill="none" group-id="1" node-id="243" stroke="#282828" stroke-linecap="round" stroke-width="4" target-height="65.350006" target-width="27.79654" target-x="344.56345" target-y="281.53"></path></g></svg>