<?xml version="1.0" standalone="no"?><!DOCTYPE svg PUBLIC "-//W3C//DTD SVG 1.1//EN" "http://www.w3.org/Graphics/SVG/1.1/DTD/svg11.dtd"><svg t="1713261181479" class="icon" viewBox="0 0 1024 1024" version="1.1" xmlns="http://www.w3.org/2000/svg" p-id="6835" xmlns:xlink="http://www.w3.org/1999/xlink" width="200" height="200"><path d="M512 0C229.220174 0 0 229.220174 0 512s229.220174 512 512 512 512-229.220174 512-512S794.779826 0 512 0zM192.534261 850.543304c42.896696-135.635478 169.627826-234.028522 319.465739-234.028522 149.837913 0 276.591304 98.370783 319.488 234.006261-83.456 78.781217-195.673043 127.398957-319.488 127.398957C388.185043 977.942261 275.968 929.324522 192.534261 850.543304zM338.587826 401.296696c0-95.766261 77.623652-173.412174 173.412174-173.412174s173.412174 77.645913 173.412174 173.412174c0 95.766261-77.623652 173.412174-173.412174 173.412174S338.587826 497.062957 338.587826 401.296696zM863.788522 816.90713c-39.468522-110.369391-128.155826-192.934957-237.456696-227.350261 2.938435-1.78087 5.921391-3.405913 8.726261-5.320348 5.743304-3.895652 11.330783-8.080696 16.695652-12.466087 5.36487-4.385391 10.529391-9.060174 15.404522-13.979826 4.919652-4.87513 9.594435-10.039652 14.046609-15.404522 4.385391-5.36487 8.503652-10.952348 12.421565-16.695652 3.895652-5.743304 7.546435-11.776 10.907826-17.897739 3.294609-6.121739 6.344348-12.466087 9.104696-18.966261 2.760348-6.500174 5.209043-13.111652 7.323826-19.901217 2.114783-6.767304 3.895652-13.712696 5.36487-20.769391 1.469217-7.056696 2.537739-14.269217 3.294609-21.526261 0.712348-7.368348 1.090783-14.736696 1.090783-22.238609s-0.378435-14.848-1.135304-22.171826c-0.75687-7.257043-1.847652-14.469565-3.294609-21.526261-1.469217-7.056696-3.250087-13.979826-5.36487-20.769391-2.114783-6.789565-4.563478-13.445565-7.323826-19.901217-2.760348-6.455652-5.810087-12.8-9.104696-18.988522-3.405913-6.121739-6.989913-12.154435-10.885565-17.897739-3.895652-5.743304-8.013913-11.330783-12.421565-16.695652-4.452174-5.36487-9.104696-10.462609-14.046609-15.404522-4.87513-4.941913-10.084174-9.594435-15.404522-13.979826-5.320348-4.385391-10.907826-8.614957-16.695652-12.466087-5.787826-3.85113-11.776-7.546435-17.897739-10.907826-6.121739-3.361391-12.466087-6.344348-18.988522-9.104696-6.500174-2.760348-13.06713-5.209043-19.834435-7.323826-6.767304-2.114783-13.668174-3.895652-20.769391-5.36487-7.056696-1.402435-14.269217-2.537739-21.526261-3.31687-7.323826-0.712348-14.692174-1.090783-22.171826-1.090783-7.479652 0-14.848 0.378435-22.171826 1.135304-7.257043 0.712348-14.469565 1.847652-21.526261 3.250087-7.056696 1.469217-13.979826 3.250087-20.769391 5.36487s-13.445565 4.563478-19.945739 7.257043c-6.500174 2.715826-12.8 5.743304-18.966261 9.104696-6.188522 3.361391-12.087652 6.989913-17.830957 10.885565-5.743304 3.895652-11.330783 8.080696-16.695652 12.466087-5.36487 4.452174-10.529391 9.104696-15.404522 14.046609-4.941913 4.87513-9.594435 10.017391-13.979826 15.404522-4.452174 5.36487-8.614957 10.952348-12.466087 16.695652-3.85113 5.743304-7.590957 11.709217-10.952348 17.897739-3.361391 6.188522-6.344348 12.466087-9.104696 18.988522-2.760348 6.500174-5.142261 13.111652-7.257043 19.901217-2.114783 6.789565-3.895652 13.668174-5.36487 20.769391-1.402435 7.056696-2.537739 14.269217-3.294609 21.526261-0.712348 7.323826-1.090783 14.692174-1.090783 22.171826s0.378435 14.848 1.135304 22.171826c0.75687 7.257043 1.847652 14.469565 3.31687 21.526261 1.469217 7.056696 3.250087 13.979826 5.36487 20.769391 2.114783 6.789565 4.563478 13.445565 7.323826 19.901217 2.760348 6.455652 5.743304 12.8 9.104696 18.966261 3.361391 6.188522 6.989913 12.132174 10.885565 17.897739 3.895652 5.743304 8.080696 11.330783 12.466087 16.695652 4.452174 5.36487 9.060174 10.462609 13.979826 15.404522 4.87513 4.941913 10.039652 9.594435 15.404522 13.979826 5.36487 4.452174 10.952348 8.614957 16.695652 12.466087 2.159304 1.469217 4.496696 2.715826 6.767304 4.118261C288.946087 621.946435 198.989913 704.556522 158.875826 815.415652 88.731826 733.874087 46.057739 628.001391 46.057739 512 46.057739 254.664348 254.664348 46.057739 512 46.057739S977.942261 254.664348 977.942261 512C977.942261 628.736 934.711652 735.165217 863.788522 816.90713z" fill="#272536" p-id="6836"></path></svg>